<?xml version="1.0" encoding="utf-8"?>
<!-- Generator: Adobe Illustrator 24.3.0, SVG Export Plug-In . SVG Version: 6.00 Build 0)  -->
<svg version="1.1" id="Layer_1" xmlns="http://www.w3.org/2000/svg" xmlns:xlink="http://www.w3.org/1999/xlink" x="0px" y="0px"
	 viewBox="0 0 83.4 83.6" style="enable-background:new 0 0 83.4 83.6;" xml:space="preserve">
<style type="text/css">
	.st0{stroke:#000000;stroke-width:2;stroke-miterlimit:10;}
</style>
<g>
	<path class="st0" d="M32.9,79.7c0.3-2,3.4-16.6,5.5-25.9c-2.2,0.8-4.2,1.2-5.2,1.2c-5.4,0-5.4-4.5-2.9-7.2c2.5-2.8,7.4-5.1,5.2-6
		c-2.2-0.8-0.9-3.5,1.7-6.2c1.7-1.5,4.2-2.9,6.5-3.5c2.9-12.2,6.6-26.3,6.8-28c0.3-2.8,3.2-3.2,2,0.9c-0.5,1.7-3.4,13.1-6.8,26.6
		c0.6-0.2,1.2-0.2,1.8-0.2c4.3,0,5.4,2.3,4.3,3.4c-0.9,0.9-4.3,2.6-3.1,1.2c1.2-1.2,1.4-2.8-1.2-2.8c-0.6,0-1.4,0.2-2.3,0.5l-4,16.6
		c1.2-0.5,2.3-1.2,3.2-1.7c2.8-1.5,4-0.2,2.8,0.9c-0.6,0.8-3.7,2.2-6.8,3.4c-2.9,11.9-5.2,22.3-6.2,26.6
		C33.8,82.1,32.6,82.4,32.9,79.7z M38.9,51.4l0.8-2.9l1.1-5.1c-2.3,0.6-6.2,3.7-8.3,6.2c-2.3,2.8-0.8,3.2,1.7,3.2
		C35.2,52.6,37.1,52.1,38.9,51.4z M41.2,41.5l1.5-6.5c-1.4,0.9-2.8,1.8-4.3,3.1c-3.7,3.1-1.1,3.4,1.8,3.4
		C40.6,41.3,40.9,41.3,41.2,41.5z"/>
</g>
</svg>
