<?xml version="1.0" encoding="utf-8"?>
<!-- Generator: Adobe Illustrator 24.3.0, SVG Export Plug-In . SVG Version: 6.00 Build 0)  -->
<svg version="1.1" id="Layer_1" xmlns="http://www.w3.org/2000/svg" xmlns:xlink="http://www.w3.org/1999/xlink" x="0px" y="0px"
	 viewBox="0 0 99.8 82.5" style="enable-background:new 0 0 99.8 82.5;" xml:space="preserve">
<style type="text/css">
	.st0{stroke:#FFCE00;stroke-width:4;stroke-miterlimit:10;}
</style>
<g>
	<path class="st0" d="M51.4,12.9c0.7-3.3-0.9-5.6-4.9-6.3c-4.4-0.8-13.5,0.8-22,4.8c-7.3,3.5-14.9,8.8-16.3,14.8
		c-1.3,6,1.6,10.7,10.2,18.7c2.5,2.3,4.7,4.4,6.5,6.3c25.6-10.6,69-35.6,69.5-37.7c0.6-1.3,2.3-1.2,1.8-0.3
		c-0.7,1.1-1.6,2.1-2.8,2.7C82.6,21.7,34.7,48.6,26,52.3c6.7,7,9,11.6,8.1,17.1c-1,6.9-9.6,10.9-18.6,10C7,78.7,3,73.7,3.7,69
		c1.1-6.1,8.9-11.7,17.5-16.1c0.5-0.3,1.3-0.6,2-1c-1.6-1.7-3.7-3.7-6-6c-9.6-9-12.9-13.7-11.5-20.2s6.7-11.2,17.8-16
		c11.1-5,18.7-5.5,23.4-4.7c5.1,0.9,7,4.3,6.2,8.3c-0.9,3.6-4.6,5.5-5.7,5.6c-1,0.2-1.6-1-0.5-1.4C48.3,17,50.8,15.7,51.4,12.9z
		 M24.4,53.1c-0.8,0.3-1.4,0.7-2,1C11.7,60,6.4,64.4,5.6,69c-0.7,4,3,7.9,10.1,8.4c8.7,0.5,15.6-3.6,16.5-8.4
		C32.9,64.7,31.3,60.7,24.4,53.1z"/>
	<path class="st0" d="M90.5,56.4c0.9-0.8,2-0.2,1.1,0.7c-7.9,8.8-22.4,15.4-32.4,15.4c-8.5,0-13.9-5.1-13.9-11.8
		c0-4.6,1.2-14.5,14-30.8C71.7,14.2,83.6,6.6,91.8,6.6c2.4,0,4.2,3.4,4.6,5.8c0.2,1.1-0.6,2.2-1.7,2.2c-0.4,0-0.8-0.3-0.3-0.8
		c1.1-1.1,1.2-5.2-2.4-5.2c-4,0-17.1,5.7-31.4,23.4C50.8,44,47,53.4,47,60.8c0,6,6.2,9.6,11.3,9.6C69.1,70.3,84.6,62.1,90.5,56.4z"
		/>
</g>
</svg>
