<?xml version="1.0" encoding="utf-8"?>
<!-- Generator: Adobe Illustrator 24.3.0, SVG Export Plug-In . SVG Version: 6.00 Build 0)  -->
<svg version="1.1" id="Layer_1" xmlns="http://www.w3.org/2000/svg" xmlns:xlink="http://www.w3.org/1999/xlink" x="0px" y="0px"
	 viewBox="0 0 349.1 83.6" style="enable-background:new 0 0 349.1 83.6;" xml:space="preserve">
<style type="text/css">
	.st0{fill:#FFFFFF;stroke:#FFFFFF;stroke-width:0.5;stroke-miterlimit:10;}
</style>
<g>
	<path class="st0" d="M49.9,16c0.7-3.3-0.9-5.6-4.9-6.3c-4.4-0.8-13.5,0.8-22,4.8C15.7,18,8.1,23.3,6.7,29.3
		C5.4,35.3,8.3,40,16.9,48c2.5,2.3,4.7,4.4,6.5,6.3c9.5-3.8,23.6-7.3,25.6-8c2.2-0.8,2,0.8-0.4,1.2c-2,0.4-14.4,3.8-24.1,7.9
		c6.7,7,9,11.6,8.1,17.1c-1,6.9-9.6,10.9-18.6,10C5.5,81.8,1.5,76.8,2.2,72.1c1.1-6.1,8.9-11.7,17.5-16.1c0.5-0.3,1.3-0.6,2-1
		c-1.6-1.7-3.7-3.7-6-6c-9.6-9-12.9-13.7-11.5-20.2S10.9,17.6,22,12.8c11.1-5,18.7-5.5,23.4-4.7c5.1,0.9,7,4.3,6.2,8.3
		c-0.9,3.6-4.6,5.5-5.7,5.6c-1,0.2-1.6-1-0.5-1.4C46.8,20.1,49.3,18.8,49.9,16z M22.9,56.2c-0.8,0.3-1.4,0.7-2,1
		C10.2,63.1,4.9,67.5,4.1,72.1c-0.7,4,3,7.9,10.1,8.4c8.7,0.5,15.6-3.6,16.5-8.4C31.4,67.8,29.8,63.8,22.9,56.2z"/>
	<path class="st0" d="M49.5,43.3c1.6-3.6,4.9-5,6.5-4.7c1.2,0.2,1.9,1.8,0.9,3.8c-1.1,2.4-3.7,3.7-6.6,4.6c0.2,2.3,1.8,4.1,5.2,3.9
		c8.9-1,17.8-21.4,25.3-40.3c0.3-0.7,0.3-1,0,0C72,34.9,65.2,51,55.8,52.5C52,53.2,46.6,49.9,49.5,43.3z M50.2,46.1
		c2.3-0.7,4.4-2.3,5.5-4.2c0.5-0.9,0.5-2,0.1-2.1c-0.9-0.2-3.5,0.8-4.9,4.1C50.5,44.7,50.3,45.4,50.2,46.1z"/>
	<path class="st0" d="M71.8,60c0.9-13.8,3.2-25.7,5.7-36.6c3.8-16.8,5.8-21.1,7-21.1c0.7,0,0.9,1.9,0.6,2.6
		c-0.2,0.9-1.2,2.6-2.1,4.4c-0.2,0.4-2.3,8.1-3.7,15.1c-1.2,5.9-4.7,21.8-6,36.2c-0.6,7.2,0.6,8-0.2,8.1
		C72.1,68.8,71.3,65.9,71.8,60z"/>
	<path class="st0" d="M83.8,47.6c-0.1,1.6,0.3,2.2,0.9,2.2c1,0,2.7-1.6,5.2-4.1c2.6-2.4,3.7-3.3,4.8-3.3c0.9,0,1.7,0.7,1.7,1.5
		c0,0.7-0.3,2.9-0.3,3.4c-0.1,0.9,0.1,1.1,0.4,1.1c1,0,2.3-1.2,3.4-2.7c0.8-1,1.4-2,1.6-2.7c0.5-1,0.6-1.4,1-1.4
		c0.7-0.2,0.8,0.8,4,0.6c3.4-0.2,9.2-1.9,11-2.5c1-0.3,1.2,0.3,0.4,0.8c-1.6,0.9-6.3,2.5-10.1,2.8c-3.7,0.2-4.4-0.4-4.6-0.2
		c-0.2,0.1-0.8,1.6-1.9,3.4c-1,1.6-3,3.2-4.8,3.2c-1.4,0-1.8-0.9-1.8-2c0-1.2,0.4-2.7,0.4-3.7c0-0.3,0-0.6-0.3-0.6
		c-0.6,0-0.9,0.8-4,3.6c-3.4,3.3-4.7,4.2-5.8,4.4c-1.9,0.3-2.6-1.6-2.6-2.8c0-2.2,1.6-7.1,3.3-11c1.4-3,2-3.9,2.7-3.9
		s0.9,0.1,0.6,0.7C86.3,38.8,83.9,45.3,83.8,47.6z"/>
	<path class="st0" d="M123.6,46c-2.7,3-5.5,5.7-7.2,5.7c-1.1,0-2-1-1.6-2.8c0.6-2,1.2-4.5,1.8-6.1c0.6-2,0.2-2.9,1-3
		c0.8-0.1,1.1,0.5,1.1,0.8c0,0.6-0.2,1.2-0.9,3c-0.6,1.6-1.3,3.9-1.5,4.5c-0.3,1.3-0.2,1.8,0.3,1.8c0.9,0,3.7-2,6.1-4.7
		c3.9-4.2,5.2-6.1,7.1-6.1c1.9,0,2.3,3.3,2.4,5.8c6.1-3.6,11.9-5.6,13.3-5.6c1.2,0,1.5,1.3,0.4,1.3c-1.6,0-7.5,2-13.7,6
		c-0.2,7.1-2.8,18.1-6.4,24.5c-3.6,6.3-8.3,10.6-12.5,10.6c-2.1,0-4.9-1.4-4.9-5.4c0-5.8,4.6-14.5,13.7-23.7
		c2.6-2.7,5.6-4.9,8.7-6.8c-0.1-2.7-0.2-4.7-1.2-4.7C128.2,41.1,126.3,43.1,123.6,46z M130.7,47.5c-2.6,1.7-5.2,3.7-7.6,6.2
		c-9.4,9.5-13.2,18.4-13.2,22.9c0,2.3,0.9,3.7,2.7,3.7c2.9,0,7.7-3.2,11.7-10.2C128.1,63.6,130.6,52.8,130.7,47.5z"/>
	<path class="st0" d="M145.9,39.4c0.5,0,0.7,0.2,0.6,0.9c-0.2,1.5-1.2,4.2-1.3,4.8c-0.1,0.2,0,0.3,0.2,0.3s2.5-1.1,4.1-1.9
		c2.3-1.2,3.8-2,5-2s2.1,0.9,2.1,2.5c-0.2,2.2-0.1,3.5,0.6,3.6c1.4,0.3,6.5-1.2,10.4-2.9l12-5c0.7-0.3,1.1,0.8,0.2,1.2
		c-3.2,1.6-7.6,3.4-11.8,5.2c-4.1,1.7-9.4,3.4-11.7,3c-1.6-0.3-2-2-1.9-4.1c0.1-1.2,0-1.6-0.2-1.8c-0.4-0.2-1.2,0.1-2.7,0.9
		c-1.2,0.6-5.5,2.8-6.2,2.8c-0.5,0-1.9-0.5-1.9-1.2c0-0.4,1-3,1.4-5.5C145,39.5,145.5,39.5,145.9,39.4z"/>
	<path class="st0" d="M188.5,67.1c0.2-1.3,2.2-10.8,3.6-16.8c-1.4,0.5-2.7,0.8-3.4,0.8c-3.5,0-3.5-2.9-1.9-4.7
		c1.6-1.8,4.8-3.3,3.4-3.9c-1.4-0.5-0.6-2.3,1.1-4c1.1-1,2.7-1.9,4.2-2.3c1.9-7.9,4.3-17.1,4.4-18.2c0.2-1.8,2.1-2.1,1.3,0.6
		c-0.3,1.1-2.2,8.5-4.4,17.3c0.4-0.1,0.8-0.1,1.2-0.1c2.8,0,3.5,1.5,2.8,2.2c-0.6,0.6-2.8,1.7-2,0.8c0.8-0.8,0.9-1.8-0.8-1.8
		c-0.4,0-0.9,0.1-1.5,0.3l-2.6,10.8c0.8-0.3,1.5-0.8,2.1-1.1c1.8-1,2.6-0.1,1.8,0.6c-0.4,0.5-2.4,1.4-4.4,2.2
		c-1.9,7.7-3.4,14.5-4,17.3C189.1,68.7,188.3,68.9,188.5,67.1z M192.4,48.7l0.5-1.9l0.7-3.3c-1.5,0.4-4,2.4-5.4,4
		c-1.5,1.8-0.5,2.1,1.1,2.1C190,49.5,191.2,49.2,192.4,48.7z M193.9,42.3l1-4.2c-0.9,0.6-1.8,1.2-2.8,2c-2.4,2-0.7,2.2,1.2,2.2
		C193.5,42.2,193.7,42.2,193.9,42.3z"/>
	<path class="st0" d="M249,58.2c0.9-0.8,2-0.2,1.1,0.7c-7.9,8.8-22.4,15.4-32.4,15.4c-8.5,0-13.9-5.1-13.9-11.8
		c0-4.6,1.2-14.5,14-30.8C230.2,16,242.1,8.4,250.3,8.4c3.1,0,4.9,1.7,4.9,4.6s-3.2,4.3-2.3,2.6c0.9-1.7,1.2-5.2-2.4-5.2
		c-4,0-17.1,5.7-31.4,23.4c-9.8,12-13.6,21.4-13.6,28.8c0,6,6.2,9.6,11.3,9.6C227.6,72.1,243.1,63.9,249,58.2z"/>
	<path class="st0" d="M242.6,51.4c-0.2,1.8,0.2,3.1,1.2,3.1c3.5,0,8.4-6.9,8.4-13.7c0-1.2-0.2-2.3-0.4-3.1c-1.1,0.4-2.3,0.5-3.4,0.5
		c-2.1,0-3.7-0.9-3.5-2.7c0.2-1.2,1.6-2.3,3.4-2.3c1.9,0,3.6,0.9,4.6,2.6c6.4-3.3,12.9-13.7,19.5-27.8c0.8-1.6,0.4-1.6,0,0
		c-6.4,15.7-12.6,25.5-19,28.9c0.4,1,0.6,2.3,0.6,3.7c0,9.4-6.1,15.3-10.4,15.3c-1.9,0-3-2.1-2.6-4.6c0.4-3.7,2-6.9,4.8-10.4
		c0.7-0.9,1.6-1.6,2.5-1.5c1.3,0.2,1,0.5,0.1,1.6C245.5,44,242.9,48.6,242.6,51.4z M251.4,36.5c-0.8-1.4-1.9-2-3.1-2.1
		c-0.9,0-1.7,0.3-1.9,1.2c-0.2,0.8,0.8,1.4,2.3,1.4C249.5,37,250.5,36.9,251.4,36.5z"/>
	<path class="st0" d="M262.6,60c0.9-13.8,3.2-25.7,5.7-36.6c3.8-16.8,5.8-21.1,7-21.1c0.7,0,0.9,1.9,0.6,2.6
		c-0.2,0.9-1.2,2.6-2.1,4.4c-0.2,0.4-2.3,8.1-3.7,15c-1.2,5.9-4.7,21.8-6,36.2c-0.6,7.2,0.6,8-0.2,8.1
		C262.9,68.8,262.1,65.9,262.6,60z"/>
	<path class="st0" d="M273.4,45.7c0.7,0,2-0.2,3.9-0.9c7.6-2.3,14.7-6.9,21.5-11.2c1.5-0.9,2.6-1.5,3.4-1.5c2,0,2.6,1.3,2.6,2.3
		c0,0.9-2.3,9-2.3,9.9c0,0.2,0,0.3,0.2,0.3c0.3,0,2-0.9,3.5-1.7c2.3-1.2,3.9-2,5.1-2c1.2,0,2.2,0.9,2.1,2.5
		c-0.2,2.1-0.2,3.5,0.5,3.6c1.5,0.3,4.9-1.1,8.8-2.5l13.6-4.9c0.8-0.3,1.1,0.8,0.2,1.2c-3.4,1.4-9.3,3.5-13.5,5.2
		c-4.1,1.5-7.7,3-10.1,2.6c-1.6-0.3-1.9-2-1.8-4.1c0.1-1.2,0-1.6-0.2-1.8c-0.4-0.2-1.3,0-2.7,0.8c-1.3,0.6-5.5,2.7-6.2,2.7
		c-0.5,0-1.6-0.5-1.6-1.2s1.8-10.1,1.9-10.8c0.1-0.5-0.1-0.6-0.6-0.7c-0.4,0-1.1,0.4-2.2,1.1c-7.3,4.9-13.3,8.4-21.9,11.4
		c-2.1,0.7-3.6,1-4.7,1c-1.2,0-2.2-0.8-2.2-2c0-0.9,0.2-2.3,0.6-3.5c0.3-1,0.7-1.6,2-1.9c0.4,0,0.9,0.2,0.4,1.1
		c-0.6,1.4-1.2,3-1.2,4.1C272.6,45.5,272.8,45.7,273.4,45.7z M274.4,32.5c0.2-0.4,1-1.2,1.3-0.9c0.4,0.2,0.9,1,0.5,1.6
		c-0.5,0.7-1.2,1.2-1.6,1.1C274.3,34,274.1,33,274.4,32.5z"/>
	<path class="st0" d="M336.9,50.2c-4.1,0.3-5.9-3.1-4.2-6.7c1.6-3.6,4.7-5,6.3-4.7c1.5,0.2,2,1.5,1.3,3.3c-0.9,2.4-3.8,4.1-6.6,5.1
		c0.4,1.1,1.5,1.6,2.8,1.6c2.4,0,4.6-1.4,6.8-3c0.7-0.5,1.2-0.2,0.4,0.8C341.8,48.6,338.6,50.1,336.9,50.2z M333.6,46.2
		c2.3-0.8,5-3,5.6-4.7c0.2-0.7,0.2-1.4-0.4-1.6c-0.9-0.2-3.4,0.8-4.7,4.1C333.7,44.9,333.6,45.6,333.6,46.2z"/>
</g>
</svg>
